<?xml version="1.0" standalone="no"?>
<!DOCTYPE svg PUBLIC "-//W3C//DTD SVG 20010904//EN"
 "http://www.w3.org/TR/2001/REC-SVG-20010904/DTD/svg10.dtd">
<svg version="1.0" xmlns="http://www.w3.org/2000/svg"
 width="512.000000pt" height="512.000000pt" viewBox="0 0 512.000000 512.000000"
 preserveAspectRatio="xMidYMid meet">
<metadata>
Created by potrace 1.16, written by Peter Selinger 2001-2019
</metadata>
<g transform="translate(0.000000,512.000000) scale(0.100000,-0.100000)"
fill="#000000" stroke="none">
<path d="M2375 5114 c-671 -100 -1178 -574 -1317 -1233 -18 -83 -21 -145 -25
-462 l-5 -366 -72 -5 c-157 -10 -292 -118 -345 -276 -21 -61 -21 -75 -21
-1245 0 -1052 2 -1189 16 -1238 32 -109 118 -208 222 -257 l57 -27 1675 0
1675 0 57 27 c105 49 191 149 222 259 15 49 16 181 14 1255 l-3 1200 -38 76
c-63 129 -183 215 -314 226 l-63 5 0 341 c0 423 -14 524 -101 751 -132 344
-412 650 -744 815 -238 117 -380 151 -660 155 -110 2 -213 1 -230 -1z m357
-688 c320 -61 578 -303 674 -631 14 -50 18 -115 21 -402 l5 -343 -862 0 -862
0 5 333 c4 301 7 339 26 412 86 316 344 561 661 629 86 19 240 19 332 2z
m-107 -2327 c223 -41 364 -250 311 -459 -21 -81 -52 -131 -123 -195 l-56 -51
2 -274 c0 -151 -3 -293 -8 -314 -20 -82 -90 -136 -176 -136 -62 0 -109 23
-149 73 l-31 39 -5 303 -5 303 -68 70 c-101 105 -138 208 -116 326 32 177 164
296 360 325 3 1 32 -4 64 -10z"/>
</g>
</svg>
